<svg width="35" height="34" viewBox="0 0 35 34" fill="none" xmlns="http://www.w3.org/2000/svg">
<path d="M33.8688 11.9724L23.3764 10.4212L18.6861 0.748288C18.558 0.48345 18.3472 0.269057 18.0869 0.13874C17.434 -0.189154 16.6405 0.0840911 16.3141 0.748288L11.6237 10.4212L1.1314 11.9724C0.842131 12.0144 0.577654 12.1531 0.375163 12.3633C0.130363 12.6193 -0.00453293 12.9636 0.000116312 13.3207C0.00476556 13.6778 0.14858 14.0184 0.399958 14.2676L7.99129 21.7966L6.1978 32.4279C6.15574 32.6752 6.18265 32.9296 6.27546 33.1621C6.36827 33.3947 6.52328 33.5961 6.72291 33.7436C6.92253 33.8911 7.15879 33.9787 7.40489 33.9966C7.65099 34.0144 7.89708 33.9618 8.11526 33.8446L17.5001 28.8253L26.8849 33.8446C27.1411 33.9833 27.4387 34.0296 27.7238 33.9791C28.4428 33.853 28.9263 33.1594 28.8024 32.4279L27.0089 21.7966L34.6002 14.2676C34.8068 14.0616 34.9432 13.7926 34.9845 13.4983C35.0961 12.7627 34.5919 12.0817 33.8688 11.9724Z" fill="currentColor"/>
</svg>
